<svg version="1.1" id="Capa_1" xmlns="http://www.w3.org/2000/svg" x="0" y="0" viewBox="0 0 24 24" xml:space="preserve"><style>.st0{display:none}.st1,.st3{fill:none;stroke-miterlimit:10}.st1{display:inline;stroke:#000}.st3{opacity:.4;stroke:#ff007f;stroke-width:5.000000e-02;enable-background:new}</style><g id="S" class="st0"><path class="st1" d="M2 6.5h20M9 12h13M2 17.5h20"/></g><path d="M2 6h20v1H2zM9 11.5h13v1H9zM2 17h20v1H2z"/><g id="grid" class="st0"><path class="st3" d="M0 0l24 24M0 0l24 24M24 0L0 24M24 0L0 24M3 3h18v18H3z"/><circle class="st3" cx="12" cy="12" r="10"/><path opacity=".4" fill="none" stroke="#00007f" stroke-width=".05" stroke-miterlimit="10" d="M2 4h20v16H2z"/><path opacity=".4" fill="none" stroke="#0f0" stroke-width=".05" stroke-miterlimit="10" d="M4 2h16v20H4z"/></g></svg>